<svg width="479" height="54" viewBox="0 0 479 54" fill="none" xmlns="http://www.w3.org/2000/svg">
<g clip-path="url(#clip0_6907_50)">
<path d="M93.2453 27.0404L111.921 38.6596L95.7156 53.1021L68.8717 42.3151L55.9603 50.4257L43.0325 42.3151L16.2051 53.1021L0 38.6596L18.6754 27.0404L0 15.3233L16.2051 0.880859L55.9603 16.8573L95.7156 0.880859L111.921 15.3233L93.2453 27.0404Z" fill="white"/>
<path d="M116.269 53.0862V0.962891H144.644V12.3863H128.768V20.8233H142.536V31.3981H128.768V41.7607H144.957V53.0862H116.269Z" fill="white"/>
<path d="M148.25 53.0862L156.913 26.3228L149.107 0.962891H162.117L166.037 16.7109L170.17 0.962891H182.588L174.6 26.3228L183.394 53.0862H170.318L165.575 36.5386L160.997 53.0862H148.25Z" fill="white"/>
<path d="M192.716 52.8255C190.592 52.1153 188.668 50.9188 187.1 49.3333C185.518 47.6883 184.325 45.7149 183.608 43.5563C182.771 41.0521 182.365 38.4262 182.406 35.7884V17.8373C182.381 15.3833 182.759 12.9415 183.526 10.608C184.207 8.48883 185.367 6.55192 186.919 4.94522C188.484 3.35593 190.369 2.1105 192.452 1.28974C194.858 0.352434 197.427 -0.102413 200.011 -0.0484359C202.601 -0.0924798 205.177 0.322003 207.62 1.1755C209.74 1.94142 211.648 3.1941 213.186 4.83099C214.707 6.47667 215.857 8.42348 216.562 10.5427C217.35 12.9223 217.734 15.4148 217.698 17.9189V35.7884C217.732 38.3964 217.337 40.9923 216.529 43.4747C215.834 45.6212 214.677 47.5924 213.137 49.2517C211.611 50.8532 209.718 52.0677 207.62 52.7929C202.777 54.3595 197.558 54.3595 192.716 52.7929V52.8255ZM202.416 42.1692C203.058 41.8495 203.587 41.3427 203.931 40.7168C204.309 39.9844 204.586 39.205 204.754 38.3994C204.96 37.4173 205.06 36.4161 205.051 35.413V19.3061C205.069 18.081 204.969 16.857 204.754 15.6506C204.595 14.774 204.289 13.9301 203.848 13.1537C203.498 12.5295 202.955 12.0322 202.3 11.734C201.622 11.4565 200.893 11.3177 200.159 11.326C199.367 11.3011 198.581 11.4692 197.87 11.8156C197.218 12.1706 196.655 12.6671 196.223 13.268C195.713 14.0016 195.391 14.8474 195.285 15.7322C195.122 16.8946 195.045 18.0672 195.054 19.2408V35.5599C195.052 36.572 195.14 37.5822 195.318 38.5789C195.452 39.3861 195.773 40.1514 196.256 40.8147C196.712 41.3758 197.271 41.8465 197.903 42.2018C198.587 42.5613 199.352 42.7411 200.126 42.724C200.928 42.7217 201.718 42.5315 202.432 42.1692H202.416Z" fill="white"/>
<path d="M221.091 53.0862V0.962891H238.548L243.06 34.3845L247.655 0.962891H264.124V53.1841H252.843V25.5721L253.37 14.6057H252.991L247.342 53.0862H237.79L232.29 14.6057H231.994L232.29 25.5721V53.0862H221.091Z" fill="white"/>
<path d="M267.088 53.0864L275.322 0.865234H293.915L302.15 53.0864H289.963L288.464 42.2832H280.477L278.83 53.0864H267.088ZM281.91 31.4636H287.097L284.561 12.3865H284.479L281.91 31.4636Z" fill="white"/>
<path d="M306.778 53.0862V12.2884H297.144V0.962891H328.977V12.3863H319.277V53.1841L306.778 53.0862Z" fill="white"/>
<path d="M332.007 53.0862V0.962891H360.383V12.3863H344.507V20.8233H358.275V31.3981H344.507V41.7607H360.696V53.0862H332.007Z" fill="white"/>
<path d="M363.396 53.0873V0.964011H380.458C382.685 0.927351 384.905 1.21884 387.045 1.82893C388.746 2.296 390.329 3.11344 391.69 4.22784C392.979 5.37673 393.963 6.82279 394.555 8.43817C395.24 10.3943 395.569 12.4552 395.527 14.5252V21.1671C395.535 22.2587 395.464 23.3495 395.313 24.4309C395.154 25.4297 394.89 26.4089 394.522 27.352C394.158 28.2471 393.688 29.0961 393.122 29.8815C392.538 30.6765 391.798 31.3478 390.948 31.8561L396.894 53.071H383.933L379.569 34.8752H375.896V53.0873H363.396ZM375.896 24.7573H379.19C379.834 24.767 380.477 24.6902 381.1 24.5288C381.567 24.411 381.996 24.1812 382.352 23.8597C382.685 23.4963 382.928 23.0603 383.06 22.5869C383.25 21.9628 383.339 21.3128 383.324 20.6612V15.6512C383.338 15.0018 383.261 14.3535 383.093 13.7256C382.969 13.2587 382.725 12.8315 382.385 12.4853C382.037 12.1528 381.604 11.9214 381.133 11.8162C380.495 11.6774 379.843 11.6171 379.19 11.6367H375.896V24.7573Z" fill="white"/>
<path d="M398.87 53.0862V0.962891H411.369V53.1841L398.87 53.0862Z" fill="white"/>
<path d="M414.285 53.0864L422.519 0.865234H441.112L449.346 53.0864H437.16L435.661 42.2832H427.674L426.027 53.0864H414.285ZM429.106 31.4636H434.311L431.741 12.3865L429.106 31.4636Z" fill="white"/>
<path d="M452.245 53.0862V0.962891H464.728V41.7607H478.957V53.0862H452.245Z" fill="white"/>
</g>
<defs>
<clipPath id="clip0_6907_50">
<rect width="478.957" height="54" fill="white"/>
</clipPath>
</defs>
</svg>
